<svg xmlns="http://www.w3.org/2000/svg" viewBox="0 0 214.7 25.74" width="214.7" height="25.74"><defs><style>.cls-1{fill:#fff;}</style></defs><title>Asset 2</title><g id="Layer_2" data-name="Layer 2"><g id="Layer_1-2" data-name="Layer 1"><path class="cls-1" d="M15.69,25.34H10.86V23.13h-.07a5.58,5.58,0,0,1-.69.94,4.51,4.51,0,0,1-1,.84,6,6,0,0,1-1.37.6A5.77,5.77,0,0,1,6,25.74a7,7,0,0,1-3.1-.59,4.43,4.43,0,0,1-1.84-1.62,6.36,6.36,0,0,1-.87-2.45A19.94,19.94,0,0,1,0,18V9H5v8q0,.7.05,1.46a4.58,4.58,0,0,0,.3,1.39,2.4,2.4,0,0,0,.77,1,2.4,2.4,0,0,0,1.49.4A3.1,3.1,0,0,0,9.22,21a2.4,2.4,0,0,0,.92-.94,3.83,3.83,0,0,0,.42-1.32,11.35,11.35,0,0,0,.1-1.54V9h5Z"/><path class="cls-1" d="M19.24,9h4.83v2.21h.07a4.08,4.08,0,0,1,.67-.94,4.87,4.87,0,0,1,1-.84,6,6,0,0,1,1.37-.6,5.74,5.74,0,0,1,1.68-.23A6.93,6.93,0,0,1,32,9.23a4.47,4.47,0,0,1,1.83,1.63,6.59,6.59,0,0,1,.89,2.45,18.66,18.66,0,0,1,.23,3v9h-5v-8q0-.7-.05-1.46a4.59,4.59,0,0,0-.3-1.39,2.16,2.16,0,0,0-2.26-1.44,3.11,3.11,0,0,0-1.58.35,2.41,2.41,0,0,0-.92.94,3.83,3.83,0,0,0-.42,1.32,11.35,11.35,0,0,0-.1,1.54v8.11h-5Z"/><path class="cls-1" d="M47.69,13.84a3.56,3.56,0,0,0-2.92-1.37,2.74,2.74,0,0,0-1.24.3,1.07,1.07,0,0,0-.6,1,.93.93,0,0,0,.62.89,8.11,8.11,0,0,0,1.58.5l2,.47a7.7,7.7,0,0,1,2,.79,4.59,4.59,0,0,1,1.58,1.46,4.36,4.36,0,0,1,.62,2.46,4.56,4.56,0,0,1-.69,2.6A5.26,5.26,0,0,1,49,24.62a7.54,7.54,0,0,1-2.41.87,14.32,14.32,0,0,1-2.65.25,12.79,12.79,0,0,1-3.45-.49,6.45,6.45,0,0,1-2.95-1.73l3.05-3.39a5,5,0,0,0,1.56,1.32,4.2,4.2,0,0,0,2,.45,4.65,4.65,0,0,0,1.58-.25.93.93,0,0,0,.7-.92,1,1,0,0,0-.62-1,6.82,6.82,0,0,0-1.58-.54l-2-.47a8.38,8.38,0,0,1-2-.75,4.27,4.27,0,0,1-1.58-1.42,4.35,4.35,0,0,1-.62-2.46,5,5,0,0,1,.59-2.48A5.15,5.15,0,0,1,40,10a6.67,6.67,0,0,1,2.2-1,10.05,10.05,0,0,1,2.51-.32A11.78,11.78,0,0,1,48,9.12a6,6,0,0,1,2.78,1.68Z"/><path class="cls-1" d="M59,0V11.26h.07a3,3,0,0,1,.57-.94,4.46,4.46,0,0,1,1-.84A5.31,5.31,0,0,1,62,8.88a5.74,5.74,0,0,1,1.68-.23,6.93,6.93,0,0,1,3.08.59,4.47,4.47,0,0,1,1.83,1.63,6.59,6.59,0,0,1,.89,2.45,18.66,18.66,0,0,1,.23,3v9h-5v-8q0-.7-.05-1.46a4.59,4.59,0,0,0-.3-1.39A2.16,2.16,0,0,0,62,13.07a3.11,3.11,0,0,0-1.58.35,2.41,2.41,0,0,0-.92.94,3.83,3.83,0,0,0-.42,1.32,11.35,11.35,0,0,0-.1,1.54v8.11H54V0Z"/><path class="cls-1" d="M72.63,17.19a8.53,8.53,0,0,1,.7-3.52A8.1,8.1,0,0,1,75.26,11a8.5,8.5,0,0,1,2.88-1.73,10.67,10.67,0,0,1,7.07,0A8.51,8.51,0,0,1,88.09,11,8.11,8.11,0,0,1,90,13.67a8.53,8.53,0,0,1,.7,3.52,8.53,8.53,0,0,1-.7,3.52,8.1,8.1,0,0,1-1.93,2.7,8.51,8.51,0,0,1-2.88,1.73,10.66,10.66,0,0,1-7.07,0,8.51,8.51,0,0,1-2.88-1.73,8.1,8.1,0,0,1-1.93-2.7A8.53,8.53,0,0,1,72.63,17.19Zm5,0a4.22,4.22,0,0,0,1.06,3,4.43,4.43,0,0,0,5.93,0,4.22,4.22,0,0,0,1.06-3,4.21,4.21,0,0,0-1.06-3,4.43,4.43,0,0,0-5.93,0A4.21,4.21,0,0,0,77.65,17.19Z"/><path class="cls-1" d="M93.67,9h5v2.61h.07a6.18,6.18,0,0,1,1.91-2.26,4.83,4.83,0,0,1,2.78-.75q.44,0,.87,0a4.32,4.32,0,0,1,.8.13v4.59a7.64,7.64,0,0,0-1.06-.25,6.86,6.86,0,0,0-1.09-.08,5.35,5.35,0,0,0-2.28.4,3,3,0,0,0-1.29,1.12,4.27,4.27,0,0,0-.59,1.73,16.8,16.8,0,0,0-.13,2.21v6.8h-5Z"/><path class="cls-1" d="M118.41,13.07H114V18.5a10.16,10.16,0,0,0,.07,1.22,2.48,2.48,0,0,0,.3,1,1.52,1.52,0,0,0,.72.62,3.17,3.17,0,0,0,1.29.22,8.73,8.73,0,0,0,1.06-.08,1.79,1.79,0,0,0,1-.39v4.19a7.62,7.62,0,0,1-1.74.4,16,16,0,0,1-1.78.1,9.66,9.66,0,0,1-2.35-.27,5.33,5.33,0,0,1-1.88-.85,4,4,0,0,1-1.26-1.52,5.21,5.21,0,0,1-.45-2.28V13.07h-3.22V9H109V4.22h5V9h4.42Z"/><path class="cls-1" d="M136.37,22.52a8,8,0,0,1-3,2.38,9.16,9.16,0,0,1-3.82.84,10.26,10.26,0,0,1-3.54-.6,8.52,8.52,0,0,1-2.88-1.73,8.09,8.09,0,0,1-1.93-2.7,8.52,8.52,0,0,1-.7-3.52,8.52,8.52,0,0,1,.7-3.52,8.1,8.1,0,0,1,1.93-2.7A8.51,8.51,0,0,1,126,9.25a10.26,10.26,0,0,1,3.54-.6,8,8,0,0,1,3.17.6A6.6,6.6,0,0,1,135.08,11a7.88,7.88,0,0,1,1.52,2.7,10.88,10.88,0,0,1,.54,3.52v1.58H125.48a4,4,0,0,0,1.31,2.3,3.69,3.69,0,0,0,2.48.85,3.77,3.77,0,0,0,2.09-.55,5.6,5.6,0,0,0,1.49-1.42Zm-4.26-7.17a2.91,2.91,0,0,0-.84-2.18,3,3,0,0,0-2.25-.9,3.77,3.77,0,0,0-1.47.27,3.7,3.7,0,0,0-1.09.69,3,3,0,0,0-.7,1,3.19,3.19,0,0,0-.29,1.16Z"/><path class="cls-1" d="M140.19,9H145v2.21h.07a4,4,0,0,1,.67-.94,4.87,4.87,0,0,1,1-.84,6,6,0,0,1,1.37-.6,5.73,5.73,0,0,1,1.68-.23,6.93,6.93,0,0,1,3.08.59,4.46,4.46,0,0,1,1.83,1.63,6.58,6.58,0,0,1,.89,2.45,18.6,18.6,0,0,1,.24,3v9h-5v-8q0-.7-.05-1.46a4.58,4.58,0,0,0-.3-1.39,2.16,2.16,0,0,0-2.26-1.44,3.1,3.1,0,0,0-1.58.35,2.4,2.4,0,0,0-.92.94,3.82,3.82,0,0,0-.42,1.32,11.35,11.35,0,0,0-.1,1.54v8.11h-5Z"/><path class="cls-1" d="M159.53,22.46a3.14,3.14,0,0,1,.23-1.21,3,3,0,0,1,1.64-1.64,3.22,3.22,0,0,1,2.41,0,3,3,0,0,1,1.64,1.64,3.21,3.21,0,0,1,0,2.41,3,3,0,0,1-1.64,1.64,3.22,3.22,0,0,1-2.41,0,3,3,0,0,1-1.64-1.64A3.14,3.14,0,0,1,159.53,22.46Z"/><path class="cls-1" d="M169.35,9h4.83v2.21h.07a4,4,0,0,1,.67-.94,4.87,4.87,0,0,1,1-.84,6,6,0,0,1,1.37-.6A5.73,5.73,0,0,1,179,8.65a6.36,6.36,0,0,1,3,.7,4.46,4.46,0,0,1,2,2.21,5.44,5.44,0,0,1,2.11-2.25,6.35,6.35,0,0,1,3-.67A6.23,6.23,0,0,1,192,9.2a4.53,4.53,0,0,1,1.78,1.51,6.36,6.36,0,0,1,.94,2.25,12.78,12.78,0,0,1,.29,2.76v9.62h-5V15.85a3.79,3.79,0,0,0-.49-2,1.84,1.84,0,0,0-1.73-.82,3.33,3.33,0,0,0-1.46.29,2.41,2.41,0,0,0-.94.79,3.28,3.28,0,0,0-.5,1.17,6.46,6.46,0,0,0-.15,1.41v8.61h-5V16.72c0-.29,0-.65,0-1.07a4.3,4.3,0,0,0-.23-1.21,2.31,2.31,0,0,0-.65-1,1.94,1.94,0,0,0-1.32-.4,3.1,3.1,0,0,0-1.58.35,2.4,2.4,0,0,0-.92.94,3.82,3.82,0,0,0-.42,1.32,11.35,11.35,0,0,0-.1,1.54v8.11h-5Z"/><path class="cls-1" d="M213.93,22.52a8,8,0,0,1-3,2.38,9.16,9.16,0,0,1-3.82.84,10.26,10.26,0,0,1-3.54-.6,8.52,8.52,0,0,1-2.88-1.73,8.09,8.09,0,0,1-1.93-2.7,8.52,8.52,0,0,1-.7-3.52,8.52,8.52,0,0,1,.7-3.52,8.1,8.1,0,0,1,1.93-2.7,8.51,8.51,0,0,1,2.88-1.73,10.26,10.26,0,0,1,3.54-.6,8,8,0,0,1,3.17.6A6.6,6.6,0,0,1,212.64,11a7.88,7.88,0,0,1,1.52,2.7,10.88,10.88,0,0,1,.54,3.52v1.58H203a4,4,0,0,0,1.31,2.3,3.69,3.69,0,0,0,2.48.85,3.77,3.77,0,0,0,2.09-.55,5.6,5.6,0,0,0,1.49-1.42Zm-4.26-7.17a2.91,2.91,0,0,0-.84-2.18,3,3,0,0,0-2.25-.9,3.77,3.77,0,0,0-1.47.27,3.7,3.7,0,0,0-1.09.69,3,3,0,0,0-.7,1,3.19,3.19,0,0,0-.29,1.16Z"/></g></g></svg>